<svg xmlns="http://www.w3.org/2000/svg" version="1.1" xmlns:xlink="http://www.w3.org/1999/xlink" width="1000" height="1000"><g clip-path="url(#SvgjsClipPath1903)"><rect width="1000" height="1000" fill="#800b0b"></rect><g transform="matrix(5,0,0,5,0,0)"><svg xmlns="http://www.w3.org/2000/svg" version="1.1" xmlns:xlink="http://www.w3.org/1999/xlink" width="200" height="200"><svg xmlns="http://www.w3.org/2000/svg" version="1.1" xmlns:xlink="http://www.w3.org/1999/xlink" viewBox="0 0 200 200"><rect width="200" height="200" fill="url('#gradient')"></rect><defs><linearGradient id="gradient" gradientTransform="rotate(98 0.5 0.5)"><stop offset="0%" stop-color="#76ba96"></stop><stop offset="100%" stop-color="#79b4ca"></stop></linearGradient><clipPath id="SvgjsClipPath1903"><rect width="1000" height="1000" x="0" y="0" rx="500" ry="500"></rect></clipPath></defs><g><g fill="#fd8e88" transform="matrix(7.793657505285412,0,0,7.793657505285412,1.6419703186692516,158.49128316713941)" stroke="#ee304f" stroke-width="1.65"><path d="M5.75 0L1.07 0L1.07-14.22L5.65-14.22Q7.54-14.22 9.04-13.36Q10.55-12.51 11.39-10.95Q12.24-9.39 12.25-7.46L12.25-7.46L12.25-6.81Q12.25-4.85 11.42-3.31Q10.60-1.76 9.10-0.88Q7.60-0.01 5.75 0L5.75 0ZM5.65-11.57L4.50-11.57L4.50-2.64L5.69-2.64Q7.17-2.64 7.96-3.69Q8.75-4.74 8.75-6.81L8.75-6.81L8.75-7.42Q8.75-9.48 7.96-10.53Q7.17-11.57 5.65-11.57L5.65-11.57ZM20.40 0L18.10-3.94L17.17-3.01L17.17 0L13.88 0L13.88-15.01L17.17-15.01L17.17-7.04L17.50-7.48L19.98-10.57L23.93-10.57L20.22-6.22L24.17 0L20.40 0Z"></path></g></g></svg></svg></g></g></svg>